<mxfile host="app.diagrams.net" modified="2022-08-24T07:39:23.628Z" agent="5.0 (Macintosh; Intel Mac OS X 10_15_7) AppleWebKit/537.36 (KHTML, like Gecko) Chrome/104.0.0.0 Safari/537.36" etag="zeEDASjye2JMh7FqmS_U" version="20.2.4" type="github">
  <diagram id="YcbZgbcO68XsaDMt3gth" name="第 1 页">
    <mxGraphModel dx="1773" dy="1731" grid="1" gridSize="10" guides="1" tooltips="1" connect="1" arrows="1" fold="1" page="1" pageScale="1" pageWidth="827" pageHeight="1169" math="0" shadow="0">
      <root>
        <mxCell id="0" />
        <mxCell id="1" parent="0" />
        <mxCell id="4zzjcm8Y2lMl3Gj6XbMF-35" value="丢失" style="text;html=1;align=center;verticalAlign=middle;resizable=0;points=[];autosize=1;strokeColor=#B20000;fillColor=#e51400;fontSize=16;fontColor=#ffffff;" vertex="1" parent="1">
          <mxGeometry x="282" y="170" width="60" height="30" as="geometry" />
        </mxCell>
        <mxCell id="4zzjcm8Y2lMl3Gj6XbMF-1" value="&lt;b style=&quot;color: rgb(255, 153, 51); font-size: 16px;&quot;&gt;SYN&lt;br style=&quot;font-size: 16px;&quot;&gt;seq = x&lt;/b&gt;" style="rounded=0;orthogonalLoop=1;jettySize=auto;html=1;fontSize=16;exitX=1;exitY=0;exitDx=0;exitDy=0;fillColor=#ffcd28;gradientColor=#ffa500;strokeColor=#d79b00;strokeWidth=2;entryX=0;entryY=1;entryDx=0;entryDy=0;" edge="1" parent="1" source="4zzjcm8Y2lMl3Gj6XbMF-2" target="4zzjcm8Y2lMl3Gj6XbMF-4">
          <mxGeometry x="-0.125" y="10" relative="1" as="geometry">
            <mxPoint x="550" y="160" as="targetPoint" />
            <mxPoint as="offset" />
          </mxGeometry>
        </mxCell>
        <mxCell id="4zzjcm8Y2lMl3Gj6XbMF-2" value="SYN_SENT" style="rounded=0;whiteSpace=wrap;html=1;fontSize=16;fillColor=#ffcc99;strokeColor=#36393d;" vertex="1" parent="1">
          <mxGeometry x="120" y="160" width="120" height="240" as="geometry" />
        </mxCell>
        <mxCell id="4zzjcm8Y2lMl3Gj6XbMF-3" value="CLOSE" style="rounded=0;whiteSpace=wrap;html=1;fontSize=16;fillColor=#eeeeee;strokeColor=#36393d;" vertex="1" parent="1">
          <mxGeometry x="120" y="80" width="120" height="80" as="geometry" />
        </mxCell>
        <mxCell id="4zzjcm8Y2lMl3Gj6XbMF-4" value="LISTEN" style="rounded=0;whiteSpace=wrap;html=1;fontSize=16;fillColor=#cce5ff;strokeColor=#36393d;" vertex="1" parent="1">
          <mxGeometry x="560" y="130" width="120" height="30" as="geometry" />
        </mxCell>
        <mxCell id="4zzjcm8Y2lMl3Gj6XbMF-5" value="CLOSE" style="rounded=0;whiteSpace=wrap;html=1;fontSize=16;fillColor=#eeeeee;strokeColor=#36393d;" vertex="1" parent="1">
          <mxGeometry x="560" y="80" width="120" height="50" as="geometry" />
        </mxCell>
        <mxCell id="4zzjcm8Y2lMl3Gj6XbMF-7" value="" style="shape=curlyBracket;whiteSpace=wrap;html=1;rounded=1;fontSize=16;" vertex="1" parent="1">
          <mxGeometry x="100" y="160" width="20" height="80" as="geometry" />
        </mxCell>
        <mxCell id="4zzjcm8Y2lMl3Gj6XbMF-8" value="超时重传&lt;br style=&quot;font-size: 16px;&quot;&gt;RTO" style="text;html=1;align=center;verticalAlign=middle;resizable=0;points=[];autosize=1;strokeColor=#36393d;fillColor=#ffff88;fontSize=16;" vertex="1" parent="1">
          <mxGeometry y="175" width="90" height="50" as="geometry" />
        </mxCell>
        <mxCell id="4zzjcm8Y2lMl3Gj6XbMF-15" value="CLOSE" style="rounded=0;whiteSpace=wrap;html=1;fontSize=16;fillColor=#f5f5f5;fontColor=#333333;strokeColor=#666666;" vertex="1" parent="1">
          <mxGeometry x="120" y="400" width="120" height="640" as="geometry" />
        </mxCell>
        <mxCell id="4zzjcm8Y2lMl3Gj6XbMF-18" value="客户端" style="aspect=fixed;perimeter=ellipsePerimeter;html=1;align=center;shadow=0;dashed=0;spacingTop=3;image;image=img/lib/active_directory/home_page.svg;fontSize=16;" vertex="1" parent="1">
          <mxGeometry x="141.11" y="-30" width="77.78" height="70" as="geometry" />
        </mxCell>
        <mxCell id="4zzjcm8Y2lMl3Gj6XbMF-19" value="服务端" style="aspect=fixed;perimeter=ellipsePerimeter;html=1;align=center;shadow=0;dashed=0;spacingTop=3;image;image=img/lib/active_directory/web_server.svg;fontSize=16;" vertex="1" parent="1">
          <mxGeometry x="588" y="-35" width="64" height="80" as="geometry" />
        </mxCell>
        <mxCell id="4zzjcm8Y2lMl3Gj6XbMF-20" value="SYN_RCVD" style="rounded=0;whiteSpace=wrap;html=1;fontSize=16;fillColor=#ffcccc;strokeColor=#36393d;" vertex="1" parent="1">
          <mxGeometry x="560" y="160" width="120" height="830" as="geometry" />
        </mxCell>
        <mxCell id="4zzjcm8Y2lMl3Gj6XbMF-22" value="&lt;font color=&quot;#004c99&quot; style=&quot;font-size: 16px;&quot;&gt;&lt;b style=&quot;font-size: 16px;&quot;&gt;SYN，ACK&lt;br style=&quot;font-size: 16px;&quot;&gt;seq = y，ack = x+1&lt;/b&gt;&lt;/font&gt;" style="rounded=0;orthogonalLoop=1;jettySize=auto;html=1;fontSize=16;fillColor=#dae8fc;strokeColor=#6c8ebf;strokeWidth=2;" edge="1" parent="1">
          <mxGeometry x="-0.0639" y="-1" relative="1" as="geometry">
            <mxPoint x="350" y="188" as="targetPoint" />
            <mxPoint x="550" y="188" as="sourcePoint" />
            <mxPoint as="offset" />
          </mxGeometry>
        </mxCell>
        <mxCell id="4zzjcm8Y2lMl3Gj6XbMF-23" value="&lt;b style=&quot;color: rgb(255, 0, 0); font-size: 16px;&quot;&gt;重传&amp;nbsp;&lt;/b&gt;&lt;b style=&quot;color: rgb(255, 153, 51); font-size: 16px;&quot;&gt;SYN&lt;br style=&quot;font-size: 16px;&quot;&gt;seq = x&lt;/b&gt;" style="rounded=0;orthogonalLoop=1;jettySize=auto;html=1;fontSize=16;fillColor=#ffcd28;gradientColor=#ffa500;strokeColor=#d79b00;strokeWidth=2;exitX=1.017;exitY=0.333;exitDx=0;exitDy=0;exitPerimeter=0;" edge="1" parent="1" source="4zzjcm8Y2lMl3Gj6XbMF-2">
          <mxGeometry x="-0.0709" y="-1" relative="1" as="geometry">
            <mxPoint x="550" y="241" as="targetPoint" />
            <mxPoint x="250" y="240" as="sourcePoint" />
            <mxPoint as="offset" />
          </mxGeometry>
        </mxCell>
        <mxCell id="4zzjcm8Y2lMl3Gj6XbMF-24" value="" style="shape=curlyBracket;whiteSpace=wrap;html=1;rounded=1;fontSize=16;rotation=-180;" vertex="1" parent="1">
          <mxGeometry x="680" y="190" width="20" height="150" as="geometry" />
        </mxCell>
        <mxCell id="4zzjcm8Y2lMl3Gj6XbMF-25" value="超时重传&lt;br style=&quot;font-size: 16px;&quot;&gt;RTO" style="text;html=1;align=center;verticalAlign=middle;resizable=0;points=[];autosize=1;strokeColor=#36393d;fillColor=#ffff88;fontSize=16;" vertex="1" parent="1">
          <mxGeometry x="710" y="230" width="90" height="50" as="geometry" />
        </mxCell>
        <mxCell id="4zzjcm8Y2lMl3Gj6XbMF-39" value="丢失" style="text;html=1;align=center;verticalAlign=middle;resizable=0;points=[];autosize=1;strokeColor=#B20000;fillColor=#e51400;fontSize=16;fontColor=#ffffff;" vertex="1" parent="1">
          <mxGeometry x="282" y="270" width="60" height="30" as="geometry" />
        </mxCell>
        <mxCell id="4zzjcm8Y2lMl3Gj6XbMF-40" value="&lt;font color=&quot;#004c99&quot; style=&quot;font-size: 16px;&quot;&gt;&lt;b style=&quot;font-size: 16px;&quot;&gt;SYN，ACK&lt;br style=&quot;font-size: 16px;&quot;&gt;seq = y，ack = x+1&lt;/b&gt;&lt;/font&gt;" style="rounded=0;orthogonalLoop=1;jettySize=auto;html=1;fontSize=16;exitX=0;exitY=0.25;exitDx=0;exitDy=0;fillColor=#dae8fc;strokeColor=#6c8ebf;strokeWidth=2;" edge="1" parent="1">
          <mxGeometry x="-0.0639" y="-1" relative="1" as="geometry">
            <mxPoint x="350" y="288" as="targetPoint" />
            <mxPoint x="560" y="287.5" as="sourcePoint" />
            <mxPoint as="offset" />
          </mxGeometry>
        </mxCell>
        <mxCell id="4zzjcm8Y2lMl3Gj6XbMF-41" value="丢失" style="text;html=1;align=center;verticalAlign=middle;resizable=0;points=[];autosize=1;strokeColor=#B20000;fillColor=#e51400;fontSize=16;fontColor=#ffffff;" vertex="1" parent="1">
          <mxGeometry x="282" y="320" width="60" height="30" as="geometry" />
        </mxCell>
        <mxCell id="4zzjcm8Y2lMl3Gj6XbMF-42" value="&lt;b style=&quot;font-size: 16px;&quot;&gt;&lt;font color=&quot;#ff0000&quot; style=&quot;font-size: 16px;&quot;&gt;重传&lt;/font&gt;&lt;font color=&quot;#004c99&quot; style=&quot;font-size: 16px;&quot;&gt; SYN，ACK&lt;/font&gt;&lt;br style=&quot;font-size: 16px;&quot;&gt;&lt;font color=&quot;#004c99&quot; style=&quot;font-size: 16px;&quot;&gt;seq = y，ack = x+1&lt;/font&gt;&lt;/b&gt;" style="rounded=0;orthogonalLoop=1;jettySize=auto;html=1;fontSize=16;exitX=0;exitY=0.25;exitDx=0;exitDy=0;fillColor=#dae8fc;strokeColor=#6c8ebf;strokeWidth=2;" edge="1" parent="1">
          <mxGeometry x="-0.0639" y="-1" relative="1" as="geometry">
            <mxPoint x="350" y="338" as="targetPoint" />
            <mxPoint x="560" y="337.5" as="sourcePoint" />
            <mxPoint as="offset" />
          </mxGeometry>
        </mxCell>
        <mxCell id="4zzjcm8Y2lMl3Gj6XbMF-48" value="" style="shape=curlyBracket;whiteSpace=wrap;html=1;rounded=1;fontSize=16;rotation=-180;" vertex="1" parent="1">
          <mxGeometry x="680" y="340" width="20" height="250" as="geometry" />
        </mxCell>
        <mxCell id="4zzjcm8Y2lMl3Gj6XbMF-50" value="超时重传&lt;br style=&quot;font-size: 16px;&quot;&gt;2*RTO" style="text;html=1;align=center;verticalAlign=middle;resizable=0;points=[];autosize=1;strokeColor=#36393d;fillColor=#ffff88;fontSize=16;" vertex="1" parent="1">
          <mxGeometry x="710" y="460" width="90" height="50" as="geometry" />
        </mxCell>
        <mxCell id="4zzjcm8Y2lMl3Gj6XbMF-61" value="丢失" style="text;html=1;align=center;verticalAlign=middle;resizable=0;points=[];autosize=1;strokeColor=#B20000;fillColor=#e51400;fontSize=16;fontColor=#ffffff;" vertex="1" parent="1">
          <mxGeometry x="282" y="580" width="60" height="30" as="geometry" />
        </mxCell>
        <mxCell id="4zzjcm8Y2lMl3Gj6XbMF-62" value="&lt;b style=&quot;font-size: 16px;&quot;&gt;&lt;font color=&quot;#ff0000&quot; style=&quot;font-size: 16px;&quot;&gt;重传&lt;/font&gt;&lt;font color=&quot;#004c99&quot; style=&quot;font-size: 16px;&quot;&gt; SYN，ACK&lt;/font&gt;&lt;br style=&quot;font-size: 16px;&quot;&gt;&lt;font color=&quot;#004c99&quot; style=&quot;font-size: 16px;&quot;&gt;seq = y，ack = x+1&lt;/font&gt;&lt;/b&gt;" style="rounded=0;orthogonalLoop=1;jettySize=auto;html=1;fontSize=16;exitX=0;exitY=0.25;exitDx=0;exitDy=0;fillColor=#dae8fc;strokeColor=#6c8ebf;strokeWidth=2;" edge="1" parent="1">
          <mxGeometry x="-0.0639" y="-1" relative="1" as="geometry">
            <mxPoint x="346" y="598" as="targetPoint" />
            <mxPoint x="556" y="597.5" as="sourcePoint" />
            <mxPoint as="offset" />
          </mxGeometry>
        </mxCell>
        <mxCell id="4zzjcm8Y2lMl3Gj6XbMF-64" value="第二次握手最大重传次数由&lt;br style=&quot;font-size: 16px;&quot;&gt;tcp_synack_retries 参数控制，超过最大重传次数后，&lt;br&gt;会再等上一次 RTO 的 2 倍时间，如果还是没收到第三次握手，就断开 TCP 连接&amp;nbsp;" style="rounded=1;whiteSpace=wrap;html=1;fontSize=16;fillColor=#ffcccc;strokeColor=#36393d;" vertex="1" parent="1">
          <mxGeometry x="700" y="850" width="210" height="230" as="geometry" />
        </mxCell>
        <mxCell id="4zzjcm8Y2lMl3Gj6XbMF-65" value="第一次握手&lt;br&gt;最大重传次数由tcp_syn_retries &lt;br&gt;参数控制，超过最大重传次数后，&lt;br&gt;会再等上一次 RTO 的 2 倍时间，如果还是没收到第二次握手，就断开 TCP 连接&amp;nbsp;" style="rounded=1;whiteSpace=wrap;html=1;fontSize=16;fillColor=#ffcc99;strokeColor=#36393d;" vertex="1" parent="1">
          <mxGeometry x="-40" y="400" width="155" height="300" as="geometry" />
        </mxCell>
        <mxCell id="4zzjcm8Y2lMl3Gj6XbMF-66" value="" style="shape=curlyBracket;whiteSpace=wrap;html=1;rounded=1;fontSize=16;rotation=-180;" vertex="1" parent="1">
          <mxGeometry x="680" y="600" width="20" height="390" as="geometry" />
        </mxCell>
        <mxCell id="4zzjcm8Y2lMl3Gj6XbMF-67" value="超时重传&lt;br style=&quot;font-size: 16px;&quot;&gt;4*RTO" style="text;html=1;align=center;verticalAlign=middle;resizable=0;points=[];autosize=1;strokeColor=#36393d;fillColor=#ffff88;fontSize=16;" vertex="1" parent="1">
          <mxGeometry x="710" y="790" width="90" height="50" as="geometry" />
        </mxCell>
        <mxCell id="4zzjcm8Y2lMl3Gj6XbMF-69" value="" style="shape=curlyBracket;whiteSpace=wrap;html=1;rounded=1;fontSize=16;" vertex="1" parent="1">
          <mxGeometry x="100" y="240" width="20" height="160" as="geometry" />
        </mxCell>
        <mxCell id="4zzjcm8Y2lMl3Gj6XbMF-70" value="超时重传&lt;br style=&quot;font-size: 16px;&quot;&gt;2 * RTO" style="text;html=1;align=center;verticalAlign=middle;resizable=0;points=[];autosize=1;strokeColor=#36393d;fillColor=#ffff88;fontSize=16;" vertex="1" parent="1">
          <mxGeometry y="300" width="90" height="50" as="geometry" />
        </mxCell>
        <mxCell id="4zzjcm8Y2lMl3Gj6XbMF-71" value="CLOSE" style="rounded=0;whiteSpace=wrap;html=1;fontSize=16;fillColor=#f5f5f5;fontColor=#333333;strokeColor=#666666;" vertex="1" parent="1">
          <mxGeometry x="560" y="990" width="120" height="50" as="geometry" />
        </mxCell>
        <mxCell id="4zzjcm8Y2lMl3Gj6XbMF-72" value="假设&amp;nbsp;&lt;br&gt;&lt;span style=&quot;color: rgb(0, 0, 0);&quot;&gt;tcp_syn_retries = 1，&lt;br&gt;&lt;/span&gt;&lt;span style=&quot;color: rgb(0, 0, 0);&quot;&gt;tcp_synack_retries = 2，&lt;br&gt;当第二握手一直丢失时&lt;/span&gt;" style="rounded=1;whiteSpace=wrap;html=1;fontSize=16;fillColor=#fff2cc;gradientColor=#ffd966;strokeColor=#d6b656;" vertex="1" parent="1">
          <mxGeometry x="260" y="-50" width="290" height="110" as="geometry" />
        </mxCell>
      </root>
    </mxGraphModel>
  </diagram>
</mxfile>
